<svg width="25" height="24" viewBox="0 0 25 24" fill="none" xmlns="http://www.w3.org/2000/svg">
<path d="M9.5 2C8.40694 2 7.5 2.90694 7.5 4V7H6.5C5.948 7 5.5 6.551 5.5 6V3.18359C4.339 3.59859 3.5 4.698 3.5 6V19C3.5 20.103 4.397 21 5.5 21H19.5C20.603 21 21.5 20.103 21.5 19V9C21.5 7.897 20.603 7 19.5 7V4C19.5 2.90694 18.5931 2 17.5 2H9.5ZM9.5 4H11.5V7H9.5V4ZM13.5 4H17.5V7H13.5V4ZM5.5 8.81641C5.81439 8.92856 6.14761 9 6.5 9H8.5H9.5H19.5V19H5.5V8.81641ZM16.5 13C15.948 13 15.5 13.448 15.5 14C15.5 14.552 15.948 15 16.5 15C17.052 15 17.5 14.552 17.5 14C17.5 13.448 17.052 13 16.5 13Z" fill="#8892A2"/>
</svg>
