<svg width="25" height="24" viewBox="0 0 25 24" fill="none" xmlns="http://www.w3.org/2000/svg">
<g clip-path="url(#clip0_5429_15334)">
<path d="M0.5 5V7H14.5V11V13V16H8.7207C8.17163 15.3907 7.38492 15 6.5 15C5.61508 15 4.82837 15.3907 4.2793 16H3.5V15L5.5 13H1.5V18H3.5C3.5 19.657 4.843 21 6.5 21C8.157 21 9.5 19.657 9.5 18H15.5C15.5 19.657 16.843 21 18.5 21C20.157 21 21.5 19.657 21.5 18H22.5H23.5V13L20.7754 7.55273C20.6064 7.21373 20.2618 7 19.8828 7H16.5V5H0.5ZM1.5 9V11H8.5V9H1.5ZM16.5 9H19.2637L20.2637 11H16.5V9ZM16.5 13H21.2637L21.5 13.4727V16H20.7207C20.1716 15.3907 19.3849 15 18.5 15C17.7279 15 17.0316 15.3002 16.5 15.7793V13ZM6.5 16.75C7.189 16.75 7.75 17.311 7.75 18C7.75 18.689 7.189 19.25 6.5 19.25C5.811 19.25 5.25 18.689 5.25 18C5.25 17.311 5.811 16.75 6.5 16.75ZM18.5 16.75C19.189 16.75 19.75 17.311 19.75 18C19.75 18.689 19.189 19.25 18.5 19.25C17.811 19.25 17.25 18.689 17.25 18C17.25 17.311 17.811 16.75 18.5 16.75Z" fill="#8892A2"/>
</g>
<defs>
<clipPath id="clip0_5429_15334">
<rect width="24" height="24" fill="white" transform="translate(0.5)"/>
</clipPath>
</defs>
</svg>
