<svg width="78" height="39" viewBox="0 0 78 39" fill="none" xmlns="http://www.w3.org/2000/svg">
<path d="M15.0733 17.8117H11.0789V10.7272H3.96931V17.8117H0V0H3.96931V6.98398H11.0789V0H15.0733V17.8117Z" fill="#3D4356"/>
<path d="M23.1273 14.6714C23.9145 14.6714 24.576 14.4034 25.112 13.8675C25.6647 13.3315 25.941 12.5611 25.941 11.5562C25.941 10.5513 25.6647 9.7893 25.112 9.2701C24.576 8.73416 23.9145 8.46619 23.1273 8.46619C22.3569 8.46619 21.6954 8.73416 21.1427 9.2701C20.59 9.80604 20.3136 10.5681 20.3136 11.5562C20.3136 12.5444 20.59 13.3148 21.1427 13.8675C21.6954 14.4034 22.3569 14.6714 23.1273 14.6714ZM23.1273 4.94908C25.0199 4.94908 26.5942 5.56876 27.8503 6.80812C29.1232 8.04749 29.7596 9.63019 29.7596 11.5562C29.7596 13.4823 29.1232 15.0733 27.8503 16.3294C26.5942 17.5688 25.0199 18.1885 23.1273 18.1885C21.2515 18.1885 19.6772 17.5604 18.4043 16.3043C17.1315 15.0482 16.4951 13.4655 16.4951 11.5562C16.4951 9.64694 17.1315 8.07261 18.4043 6.83325C19.6772 5.57714 21.2515 4.94908 23.1273 4.94908Z" fill="#3D4356"/>
<path d="M34.8943 22.5849H31.0757V5.32591H34.7687V6.60715C35.0534 6.17169 35.5224 5.80323 36.1755 5.50177C36.8455 5.18355 37.5991 5.02445 38.4365 5.02445C40.2118 5.02445 41.6187 5.63575 42.6571 6.85837C43.7122 8.06424 44.2398 9.62181 44.2398 11.5311C44.2398 13.4404 43.6787 15.0147 42.5566 16.2541C41.4512 17.4767 40.0276 18.088 38.2858 18.088C36.7115 18.088 35.581 17.6693 34.8943 16.8319V22.5849ZM39.6675 13.8675C40.2202 13.3148 40.4966 12.5444 40.4966 11.5562C40.4966 10.5681 40.2202 9.80604 39.6675 9.2701C39.1316 8.73416 38.4617 8.46619 37.6577 8.46619C36.8706 8.46619 36.2007 8.73416 35.648 9.2701C35.112 9.80604 34.8441 10.5681 34.8441 11.5562C34.8441 12.5444 35.112 13.3148 35.648 13.8675C36.2007 14.4034 36.8706 14.6714 37.6577 14.6714C38.4617 14.6714 39.1316 14.4034 39.6675 13.8675Z" fill="#3D4356"/>
<path d="M48.4507 10.074H53.45C53.4165 9.50458 53.1904 9.01051 52.7717 8.5918C52.3697 8.1731 51.7584 7.96375 50.9378 7.96375C50.2008 7.96375 49.6147 8.18147 49.1792 8.61692C48.7437 9.05238 48.5009 9.53807 48.4507 10.074ZM53.7263 13.3148L56.9168 14.2192C56.5986 15.3748 55.9371 16.3294 54.9322 17.0831C53.9273 17.82 52.6712 18.1885 51.1639 18.1885C49.3551 18.1885 47.8142 17.5856 46.5414 16.3797C45.2853 15.1738 44.6572 13.5576 44.6572 11.5311C44.6572 9.58832 45.2685 8.00562 46.4911 6.783C47.7305 5.56039 49.1959 4.94908 50.8875 4.94908C52.8303 4.94908 54.3544 5.51852 55.4598 6.65739C56.5819 7.77952 57.1429 9.34547 57.1429 11.3552C57.1429 11.9917 57.1178 12.3853 57.0676 12.536H48.3753C48.4088 13.2227 48.7019 13.8005 49.2546 14.2694C49.8073 14.7216 50.4604 14.9477 51.2141 14.9477C52.5037 14.9477 53.3411 14.4034 53.7263 13.3148Z" fill="#3D4356"/>
<path d="M17.818 32.7891L22.0636 20.2531H26.2842L19.7775 38.0647H15.6826L9.15083 20.2531H13.5221L17.818 32.7891Z" fill="#3D4356"/>
<path d="M31.0664 34.9245C31.8536 34.9245 32.5151 34.6565 33.051 34.1205C33.6037 33.5846 33.8801 32.8142 33.8801 31.8093C33.8801 30.8044 33.6037 30.0424 33.051 29.5232C32.5151 28.9872 31.8536 28.7193 31.0664 28.7193C30.296 28.7193 29.6344 28.9872 29.0817 29.5232C28.5291 30.0591 28.2527 30.8212 28.2527 31.8093C28.2527 32.7974 28.5291 33.5679 29.0817 34.1205C29.6344 34.6565 30.296 34.9245 31.0664 34.9245ZM31.0664 25.2022C32.9589 25.2022 34.5333 25.8218 35.7894 27.0612C37.0622 28.3006 37.6987 29.8833 37.6987 31.8093C37.6987 33.7353 37.0622 35.3264 35.7894 36.5825C34.5333 37.8219 32.9589 38.4416 31.0664 38.4416C29.1906 38.4416 27.6163 37.8135 26.3434 36.5574C25.0706 35.3013 24.4341 33.7186 24.4341 31.8093C24.4341 29.9 25.0706 28.3257 26.3434 27.0863C27.6163 25.8302 29.1906 25.2022 31.0664 25.2022Z" fill="#3D4356"/>
<path d="M42.8334 38.0647H39.0148V25.579H42.8334V38.0647ZM39.3414 23.3431C38.9059 22.9077 38.6882 22.3801 38.6882 21.7604C38.6882 21.1407 38.9059 20.6132 39.3414 20.1777C39.7768 19.7423 40.296 19.5245 40.899 19.5245C41.5186 19.5245 42.0462 19.7423 42.4817 20.1777C42.9339 20.6132 43.16 21.1407 43.16 21.7604C43.16 22.3801 42.9339 22.9077 42.4817 23.3431C42.0462 23.7786 41.5186 23.9963 40.899 23.9963C40.296 23.9963 39.7768 23.7786 39.3414 23.3431Z" fill="#3D4356"/>
<path d="M50.7896 28.7193C49.969 28.7193 49.2823 28.9956 48.7296 29.5483C48.1937 30.101 47.9257 30.863 47.9257 31.8344C47.9257 32.7891 48.202 33.5427 48.7547 34.0954C49.3242 34.6481 50.0192 34.9245 50.8399 34.9245C51.5265 34.9245 52.0876 34.7486 52.5231 34.3969C52.9753 34.0284 53.2767 33.5846 53.4275 33.0654L56.7938 34.0954C56.4924 35.2845 55.8141 36.3062 54.7589 37.1603C53.7206 38.0145 52.4142 38.4416 50.8399 38.4416C48.9641 38.4416 47.373 37.8219 46.0666 36.5825C44.777 35.3264 44.1322 33.7437 44.1322 31.8344C44.1322 29.9084 44.7603 28.3257 46.0164 27.0863C47.2893 25.8302 48.8552 25.2022 50.7143 25.2022C52.3388 25.2022 53.6703 25.6209 54.7087 26.4583C55.7471 27.2957 56.417 28.3257 56.7185 29.5483L53.3018 30.5783C53.1511 30.0424 52.8664 29.5985 52.4477 29.2468C52.029 28.8951 51.4763 28.7193 50.7896 28.7193Z" fill="#3D4356"/>
<path d="M60.7433 30.3271H65.7426C65.7091 29.7576 65.483 29.2636 65.0643 28.8449C64.6624 28.4262 64.051 28.2168 63.2304 28.2168C62.4935 28.2168 61.9073 28.4345 61.4718 28.87C61.0364 29.3054 60.7935 29.7911 60.7433 30.3271ZM66.019 33.5679L69.2095 34.4723C68.8913 35.6279 68.2297 36.5825 67.2248 37.3362C66.2199 38.0731 64.9638 38.4416 63.4565 38.4416C61.6477 38.4416 60.1069 37.8386 58.834 36.6328C57.5779 35.4269 56.9498 33.8107 56.9498 31.7842C56.9498 29.8414 57.5611 28.2587 58.7838 27.0361C60.0231 25.8135 61.4886 25.2022 63.1801 25.2022C65.1229 25.2022 66.647 25.7716 67.7524 26.9105C68.8745 28.0326 69.4356 29.5985 69.4356 31.6083C69.4356 32.2447 69.4105 32.6383 69.3602 32.7891H60.6679C60.7014 33.4757 60.9945 34.0535 61.5472 34.5225C62.0999 34.9747 62.7531 35.2008 63.5067 35.2008C64.7963 35.2008 65.6338 34.6565 66.019 33.5679Z" fill="#3D4356"/>
<circle cx="74.5742" cy="34.9404" r="3.42576" fill="#553FFB"/>
</svg>
