<svg width="25" height="24" viewBox="0 0 25 24" fill="none" xmlns="http://www.w3.org/2000/svg">
<path d="M4.91406 1.99609L1.50391 2.01367L1.51367 4.01367L3.58398 4.00391L6.87891 11.9082L5.68164 13.8242C5.28164 14.4642 5.26095 15.2726 5.62695 15.9316C5.99295 16.5906 6.68741 17 7.44141 17H19.5V15H7.44141L7.37695 14.8828L8.55273 13H16.0215C16.7485 13 17.4175 12.6047 17.7695 11.9707L21.373 5.48633C21.546 5.17633 21.5413 4.79819 21.3613 4.49219C21.1813 4.18719 20.852 4 20.498 4H5.75L4.91406 1.99609ZM6.58203 6H18.7988L16.0215 11H8.66602L6.58203 6ZM7.5 18C6.96957 18 6.46086 18.2107 6.08579 18.5858C5.71071 18.9609 5.5 19.4696 5.5 20C5.5 20.5304 5.71071 21.0391 6.08579 21.4142C6.46086 21.7893 6.96957 22 7.5 22C8.03043 22 8.53914 21.7893 8.91421 21.4142C9.28929 21.0391 9.5 20.5304 9.5 20C9.5 19.4696 9.28929 18.9609 8.91421 18.5858C8.53914 18.2107 8.03043 18 7.5 18ZM17.5 18C16.9696 18 16.4609 18.2107 16.0858 18.5858C15.7107 18.9609 15.5 19.4696 15.5 20C15.5 20.5304 15.7107 21.0391 16.0858 21.4142C16.4609 21.7893 16.9696 22 17.5 22C18.0304 22 18.5391 21.7893 18.9142 21.4142C19.2893 21.0391 19.5 20.5304 19.5 20C19.5 19.4696 19.2893 18.9609 18.9142 18.5858C18.5391 18.2107 18.0304 18 17.5 18Z" fill="#8892A2"/>
</svg>
