<svg width="16" height="16" viewBox="0 0 16 16" fill="none" xmlns="http://www.w3.org/2000/svg">
<path d="M6.00001 1.33331C3.43058 1.33331 1.33334 3.43054 1.33334 5.99997C1.33334 8.5694 3.43058 10.6666 6.00001 10.6666C7.16534 10.6666 8.23001 10.232 9.04949 9.5208L9.33334 9.80466V10.6666L13.0573 14.3906C13.4253 14.7586 14.0226 14.7586 14.3906 14.3906C14.7586 14.0226 14.7586 13.4253 14.3906 13.0573L10.6667 9.3333H9.8047L9.52084 9.04945C10.232 8.22998 10.6667 7.1653 10.6667 5.99997C10.6667 3.43054 8.56944 1.33331 6.00001 1.33331ZM6.00001 2.66664C7.84885 2.66664 9.33334 4.15113 9.33334 5.99997C9.33334 7.84882 7.84885 9.3333 6.00001 9.3333C4.15116 9.3333 2.66668 7.84882 2.66668 5.99997C2.66668 4.15113 4.15116 2.66664 6.00001 2.66664Z" fill="#8892A2"/>
</svg>
