<svg width="25" height="24" viewBox="0 0 25 24" fill="none" xmlns="http://www.w3.org/2000/svg">
<path d="M12.5 3C10.3027 3 8.5 4.80271 8.5 7C8.5 9.19729 10.3027 11 12.5 11C14.6973 11 16.5 9.19729 16.5 7C16.5 4.80271 14.6973 3 12.5 3ZM12.5 5C13.6164 5 14.5 5.88359 14.5 7C14.5 8.11641 13.6164 9 12.5 9C11.3836 9 10.5 8.11641 10.5 7C10.5 5.88359 11.3836 5 12.5 5ZM12.5 14C10.755 14 8.68716 14.4098 6.94922 15.0957C6.08025 15.4387 5.2947 15.846 4.66602 16.3691C4.03734 16.8922 3.5 17.5994 3.5 18.5V21H21.5V20V18.5C21.5 17.5994 20.9627 16.8922 20.334 16.3691C19.7053 15.846 18.9198 15.4387 18.0508 15.0957C16.3128 14.4098 14.245 14 12.5 14ZM12.5 16C13.914 16 15.8461 16.374 17.3184 16.9551C18.0545 17.2456 18.677 17.592 19.0547 17.9062C19.4324 18.2205 19.5 18.4346 19.5 18.5V19H5.5V18.5C5.5 18.4346 5.56759 18.2205 5.94531 17.9062C6.32304 17.592 6.94549 17.2456 7.68164 16.9551C9.15395 16.374 11.086 16 12.5 16Z" fill="#8892A2"/>
</svg>

